<?xml version="1.0" encoding="UTF-8"?>
<!DOCTYPE svg PUBLIC "-//W3C//DTD SVG 1.1//EN" "http://www.w3.org/Graphics/SVG/1.1/DTD/svg11.dtd">
<!-- Creator: CorelDRAW -->
<svg xmlns="http://www.w3.org/2000/svg" xml:space="preserve" width="13.7851mm" height="3.2173mm" version="1.1" style="shape-rendering:geometricPrecision; text-rendering:geometricPrecision; image-rendering:optimizeQuality; fill-rule:evenodd; clip-rule:evenodd"
viewBox="0 0 1368.57 319.41"
 xmlns:xlink="http://www.w3.org/1999/xlink"
 xmlns:xodm="http://www.corel.com/coreldraw/odm/2003">
 <defs>
  <style type="text/css">
   <![CDATA[
    .fil0 {fill:#990000;fill-rule:nonzero}
   ]]>
  </style>
 </defs>
 <g id="Camada_x0020_1">
  <metadata id="CorelCorpID_0Corel-Layer"/>
  <path class="fil0" d="M-0 314.91l0 -314.91 48.13 0 137.67 229.88 -25.2 0 135.42 -229.88 48.14 0 0.45 314.91 -55.34 0 -0.45 -228.09 11.7 0 -115.17 192.11 -26.09 0 -116.97 -192.11 13.5 0 0 228.09 -55.78 0zm483.18 -183.1l157.01 -0.9 -0.45 47.24 -156.12 0.9 -0.45 -47.24zm4.5 134.51l178.16 -0.45 -0.45 49.03 -235.74 0 0.89 -314.91 229 0 -0.46 48.59 -170.95 0.45 -0.46 217.29zm243.84 48.59l-0.45 -314.91 48.13 0 197.52 242.48 -23.4 0.46 -0.45 -242.94 57.58 0 0.46 314.91 -48.14 0 -197.51 -242.49 23.84 -0.45 0 242.94 -57.58 0zm499.37 4.5c-43.19,0 -77,-12.14 -101.44,-36.44 -24.44,-24.29 -36.66,-59.39 -36.66,-105.28l0 -177.7 58.49 0 0 175.45c0,32.39 6.97,55.94 20.92,70.64 13.95,14.69 33.67,22.04 59.16,22.04 25.49,0 45.13,-7.35 58.93,-22.04 13.8,-14.69 20.69,-38.24 20.69,-70.64l0 -175.45 57.6 0 0 177.7c0,45.89 -12.22,80.98 -36.66,105.28 -24.45,24.29 -58.13,36.44 -101.02,36.44z"/>
 </g>
</svg>
