<?xml version="1.0" encoding="UTF-8"?>
<!DOCTYPE svg PUBLIC "-//W3C//DTD SVG 1.1//EN" "http://www.w3.org/Graphics/SVG/1.1/DTD/svg11.dtd">
<!-- Creator: CorelDRAW -->
<svg xmlns="http://www.w3.org/2000/svg" xml:space="preserve" width="5.0798mm" height="5.0798mm" version="1.1" style="shape-rendering:geometricPrecision; text-rendering:geometricPrecision; image-rendering:optimizeQuality; fill-rule:evenodd; clip-rule:evenodd"
viewBox="0 0 507.98 507.98"
 xmlns:xlink="http://www.w3.org/1999/xlink"
 xmlns:xodm="http://www.corel.com/coreldraw/odm/2003">
 <defs>
  <style type="text/css">
   <![CDATA[
    .fil0 {fill:#990000;fill-rule:nonzero}
    .fil1 {fill:#990000;fill-rule:nonzero}
   ]]>
  </style>
 </defs>
 <g id="Camada_x0020_1">
  <metadata id="CorelCorpID_0Corel-Layer"/>
  <g transform="matrix(1.00001 0 0 1 -24805.3 -3393.28)">
   <polygon class="fil0" points="-24512.11,-3139.29 -24512.11,-3431.43 -24467.45,-3431.43 -24339.74,-3218.17 -24363.12,-3218.17 -24237.49,-3431.43 -24192.84,-3431.43 -24192.42,-3139.29 -24243.75,-3139.29 -24244.17,-3350.89 -24233.32,-3350.89 -24340.16,-3172.68 -24364.37,-3172.68 -24472.88,-3350.89 -24460.36,-3350.89 -24460.36,-3139.29 "/>
   <path id="_1" class="fil0" d="M-24063.87 -3309.15l145.65 -0.84 -0.42 43.83 -144.82 0.83 -0.41 -43.82zm4.17 124.79l165.27 -0.42 -0.42 45.49 -218.69 0 0.84 -292.14 212.43 0 -0.42 45.07 -158.59 0.42 -0.42 201.58z"/>
   <polygon id="_2" class="fil0" points="-23833.5,-3139.29 -23833.92,-3431.43 -23789.25,-3431.43 -23606.04,-3206.48 -23627.74,-3206.07 -23628.16,-3431.43 -23574.73,-3431.43 -23574.32,-3139.29 -23618.97,-3139.29 -23802.19,-3364.24 -23780.07,-3364.66 -23780.07,-3139.29 "/>
   <path id="_3" class="fil0" d="M-23370.24 -3135.12c-40.06,0 -71.43,-11.26 -94.11,-33.8 -22.68,-22.54 -34.01,-55.09 -34.01,-97.66l0 -164.85 54.25 0 0 162.76c0,30.05 6.47,51.89 19.41,65.53 12.94,13.63 31.23,20.45 54.88,20.45 23.65,0 41.87,-6.82 54.67,-20.45 12.8,-13.64 19.2,-35.48 19.2,-65.53l0 -162.76 53.42 0 0 164.85c0,42.57 -11.34,75.12 -34.01,97.66 -22.68,22.54 -53.91,33.8 -93.7,33.8z"/>
  </g>
  <g id="_1548766409968">
   <polygon class="fil1" points="429.04,507.39 -0.01,79.57 79.56,0 507.99,428.44 "/>
   <polygon class="fil1" points="507.37,78.96 79.56,508 -0.01,428.44 428.42,0 "/>
  </g>
 </g>
</svg>
