<?xml version="1.0" encoding="UTF-8"?>
<!DOCTYPE svg PUBLIC "-//W3C//DTD SVG 1.1//EN" "http://www.w3.org/Graphics/SVG/1.1/DTD/svg11.dtd">
<!-- Creator: CorelDRAW -->
<svg xmlns="http://www.w3.org/2000/svg" xml:space="preserve" width="7.7258mm" height="7.7258mm" version="1.1" style="shape-rendering:geometricPrecision; text-rendering:geometricPrecision; image-rendering:optimizeQuality; fill-rule:evenodd; clip-rule:evenodd"
viewBox="0 0 766.27 766.27"
 xmlns:xlink="http://www.w3.org/1999/xlink"
 xmlns:xodm="http://www.corel.com/coreldraw/odm/2003">
 <defs>
  <style type="text/css">
   <![CDATA[
    .fil0 {fill:white}
    .fil1 {fill:#262A87;fill-rule:nonzero}
   ]]>
  </style>
 </defs>
 <g id="Camada_x0020_1">
  <metadata id="CorelCorpID_0Corel-Layer"/>
  <g id="_1982671779856">
   <path class="fil0" d="M383.14 30.97c-194.46,0 -352.17,157.71 -352.17,352.17 0,194.46 157.71,352.17 352.17,352.17 194.46,0 352.17,-157.71 352.17,-352.17 0,-194.46 -157.71,-352.17 -352.17,-352.17z"/>
   <path class="fil1" d="M383.14 61.93c-88.7,0 -169,35.95 -226.99,94.21 -58.26,57.99 -94.21,138.3 -94.21,226.99 0,88.7 35.95,169 94.21,226.99 57.99,58.26 138.3,94.21 226.99,94.21 88.7,0 169,-35.95 226.99,-94.21 58.26,-57.99 94.21,-138.3 94.21,-226.99 0,-88.7 -35.95,-169 -94.21,-226.99 -57.99,-58.26 -138.3,-94.21 -226.99,-94.21zm-270.82 50.39c69.28,-69.28 165.06,-112.32 270.82,-112.32 105.76,0 201.54,43.04 270.82,112.32 69.28,69.28 112.32,165.06 112.32,270.82 0,105.76 -43.04,201.54 -112.32,270.82 -69.28,69.28 -165.06,112.32 -270.82,112.32 -105.76,0 -201.54,-43.04 -270.82,-112.32 -69.28,-69.28 -112.32,-165.06 -112.32,-270.82 0,-105.76 43.04,-201.54 112.32,-270.82z"/>
   <path class="fil1" d="M220.44 541.64c-13.38,10.76 -32.8,8.93 -43.83,-4.2 -10.76,-13.12 -8.93,-32.8 4.2,-43.56l181.34 -150.1c6.04,-4.99 13.65,-7.35 21,-7.08 7.35,-0.26 14.96,2.1 21,7.08l181.34 150.1c13.12,10.76 14.96,30.44 3.94,43.56 -10.76,13.12 -30.44,14.96 -43.56,4.2l-162.7 -134.62 -162.7 134.62 -0.01 0z"/>
   <path class="fil1" d="M220.44 357.69c-13.38,11.02 -32.8,9.18 -43.83,-3.94 -10.76,-13.12 -8.93,-32.8 4.2,-43.56l181.34 -150.1c6.04,-4.99 13.65,-7.35 21,-7.08 7.35,-0.26 14.96,2.1 21,7.08l181.34 150.1c13.12,10.76 14.96,30.44 3.94,43.56 -10.76,13.12 -30.44,14.96 -43.56,3.94l-162.7 -134.62 -162.7 134.62 -0.01 0z"/>
  </g>
 </g>
</svg>
